<svg width="145" height="21" viewBox="0 0 145 21" fill="none" xmlns="http://www.w3.org/2000/svg">
<path d="M0.887784 4.98757V1.81818H15.8203V4.98757H10.2539V20H6.45419V4.98757H0.887784ZM16.7924 20V6.36364H20.459V8.7429H20.601C20.8496 7.89654 21.2669 7.25734 21.8528 6.82528C22.4387 6.38731 23.1135 6.16832 23.877 6.16832C24.0663 6.16832 24.2705 6.18016 24.4895 6.20383C24.7085 6.22751 24.9009 6.26006 25.0666 6.30149V9.65731C24.889 9.60405 24.6434 9.5567 24.3297 9.51527C24.016 9.47384 23.729 9.45312 23.4686 9.45312C22.9122 9.45312 22.4151 9.57446 21.9771 9.81712C21.545 10.0539 21.2018 10.3853 20.9473 10.8114C20.6987 11.2376 20.5744 11.7288 20.5744 12.2852V20H16.7924ZM27.0219 20V6.36364H30.8039V20H27.0219ZM28.9218 4.60582C28.3595 4.60582 27.8772 4.41939 27.4747 4.04652C27.0782 3.66773 26.8799 3.21496 26.8799 2.68821C26.8799 2.16738 27.0782 1.72053 27.4747 1.34766C27.8772 0.968868 28.3595 0.779473 28.9218 0.779473C29.484 0.779473 29.9635 0.968868 30.36 1.34766C30.7625 1.72053 30.9637 2.16738 30.9637 2.68821C30.9637 3.21496 30.7625 3.66773 30.36 4.04652C29.9635 4.41939 29.484 4.60582 28.9218 4.60582ZM46.5465 6.36364L41.7791 20H37.5178L32.7504 6.36364H36.7454L39.5774 16.1204H39.7195L42.5426 6.36364H46.5465ZM48.4819 20V6.36364H52.2638V20H48.4819ZM50.3817 4.60582C49.8195 4.60582 49.3371 4.41939 48.9347 4.04652C48.5381 3.66773 48.3398 3.21496 48.3398 2.68821C48.3398 2.16738 48.5381 1.72053 48.9347 1.34766C49.3371 0.968868 49.8195 0.779473 50.3817 0.779473C50.944 0.779473 51.4234 0.968868 51.82 1.34766C52.2224 1.72053 52.4237 2.16738 52.4237 2.68821C52.4237 3.21496 52.2224 3.66773 51.82 4.04652C51.4234 4.41939 50.944 4.60582 50.3817 4.60582ZM59.1819 20.2575C58.3119 20.2575 57.5365 20.1065 56.8559 19.8047C56.1753 19.4969 55.6367 19.0442 55.2401 18.4464C54.8495 17.8427 54.6542 17.091 54.6542 16.1914C54.6542 15.4338 54.7933 14.7976 55.0715 14.2827C55.3496 13.7678 55.7284 13.3535 56.2078 13.0398C56.6872 12.7261 57.2317 12.4893 57.8414 12.3295C58.4569 12.1697 59.102 12.0573 59.7767 11.9922C60.5698 11.9093 61.209 11.8324 61.6943 11.7614C62.1797 11.6844 62.5318 11.572 62.7508 11.424C62.9698 11.276 63.0793 11.0571 63.0793 10.767V10.7138C63.0793 10.1515 62.9017 9.7165 62.5466 9.40874C62.1974 9.10097 61.7003 8.94709 61.0551 8.94709C60.3745 8.94709 59.8329 9.09801 59.4305 9.39986C59.028 9.69579 58.7617 10.0687 58.6315 10.5185L55.1336 10.2344C55.3112 9.40578 55.6604 8.68963 56.1812 8.08594C56.702 7.47633 57.3738 7.00876 58.1965 6.68324C59.0251 6.3518 59.9839 6.18608 61.0729 6.18608C61.8305 6.18608 62.5555 6.27486 63.248 6.45241C63.9463 6.62997 64.5648 6.90518 65.1034 7.27805C65.6479 7.65092 66.077 8.13033 66.3907 8.71626C66.7044 9.29628 66.8612 9.99171 66.8612 10.8026V20H63.2746V18.109H63.1681C62.9491 18.5352 62.6561 18.911 62.2892 19.2365C61.9222 19.5561 61.4813 19.8076 60.9664 19.9911C60.4514 20.1687 59.8566 20.2575 59.1819 20.2575ZM60.265 17.6474C60.8213 17.6474 61.3126 17.5379 61.7387 17.3189C62.1649 17.094 62.4993 16.7921 62.7419 16.4134C62.9846 16.0346 63.1059 15.6055 63.1059 15.1261V13.679C62.9875 13.7559 62.8248 13.8269 62.6176 13.892C62.4164 13.9512 62.1885 14.0075 61.934 14.0607C61.6795 14.1081 61.425 14.1525 61.1705 14.1939C60.916 14.2294 60.6852 14.262 60.4781 14.2915C60.0342 14.3567 59.6465 14.4602 59.3151 14.6023C58.9836 14.7443 58.7262 14.9367 58.5427 15.1793C58.3592 15.4161 58.2675 15.712 58.2675 16.0671C58.2675 16.582 58.4539 16.9756 58.8268 17.2479C59.2056 17.5142 59.685 17.6474 60.265 17.6474ZM75.6525 20V1.81818H87.6909V4.98757H79.4966V9.31996H86.8919V12.4893H79.4966V20H75.6525ZM93.9875 1.81818V20H90.2055V1.81818H93.9875ZM97.017 20V6.36364H100.799V20H97.017ZM98.9169 4.60582C98.3546 4.60582 97.8723 4.41939 97.4698 4.04652C97.0733 3.66773 96.875 3.21496 96.875 2.68821C96.875 2.16738 97.0733 1.72053 97.4698 1.34766C97.8723 0.968868 98.3546 0.779473 98.9169 0.779473C99.4792 0.779473 99.9586 0.968868 100.355 1.34766C100.758 1.72053 100.959 2.16738 100.959 2.68821C100.959 3.21496 100.758 3.66773 100.355 4.04652C99.9586 4.41939 99.4792 4.60582 98.9169 4.60582ZM109.99 20.2663C108.593 20.2663 107.392 19.9704 106.385 19.3786C105.385 18.7808 104.616 17.9522 104.077 16.8928C103.544 15.8333 103.278 14.6141 103.278 13.2351C103.278 11.8383 103.547 10.6132 104.086 9.55966C104.631 8.50024 105.403 7.6746 106.403 7.08274C107.403 6.48497 108.593 6.18608 109.972 6.18608C111.162 6.18608 112.203 6.40211 113.097 6.83416C113.991 7.26622 114.698 7.87287 115.219 8.65412C115.74 9.43537 116.027 10.3527 116.08 11.4062H112.511C112.41 10.7256 112.144 10.1781 111.712 9.76385C111.286 9.34363 110.727 9.13352 110.034 9.13352C109.448 9.13352 108.936 9.29332 108.498 9.61293C108.066 9.92661 107.729 10.3853 107.486 10.989C107.244 11.5927 107.122 12.3236 107.122 13.1818C107.122 14.0518 107.241 14.7917 107.477 15.4013C107.72 16.0109 108.06 16.4755 108.498 16.7951C108.936 17.1147 109.448 17.2745 110.034 17.2745C110.466 17.2745 110.854 17.1857 111.197 17.0082C111.546 16.8306 111.833 16.5732 112.058 16.2358C112.289 15.8925 112.44 15.4812 112.511 15.0018H116.08C116.021 16.0434 115.737 16.9608 115.228 17.7539C114.725 18.5411 114.029 19.1566 113.141 19.6005C112.254 20.0444 111.203 20.2663 109.99 20.2663ZM121.928 16.076L121.937 11.5394H122.488L126.855 6.36364H131.197L125.328 13.2173H124.432L121.928 16.076ZM118.501 20V1.81818H122.283V20H118.501ZM127.024 20L123.011 14.0607L125.533 11.3885L131.454 20H127.024ZM144.398 10.2521L140.936 10.4652C140.877 10.1693 140.749 9.90294 140.554 9.66619C140.359 9.42353 140.101 9.23118 139.782 9.08913C139.468 8.94117 139.092 8.86719 138.654 8.86719C138.068 8.86719 137.574 8.99148 137.172 9.24006C136.769 9.48272 136.568 9.80824 136.568 10.2166C136.568 10.5421 136.698 10.8174 136.958 11.0423C137.219 11.2672 137.666 11.4477 138.299 11.5838L140.767 12.081C142.093 12.3532 143.081 12.7912 143.732 13.3949C144.383 13.9986 144.709 14.7917 144.709 15.7741C144.709 16.6679 144.445 17.4521 143.919 18.1268C143.398 18.8015 142.682 19.3282 141.77 19.707C140.865 20.0799 139.82 20.2663 138.636 20.2663C136.831 20.2663 135.393 19.8905 134.322 19.1388C133.256 18.3813 132.632 17.3514 132.449 16.0494L136.168 15.854C136.281 16.4045 136.553 16.8247 136.985 17.1147C137.417 17.3988 137.971 17.5408 138.645 17.5408C139.308 17.5408 139.841 17.4136 140.243 17.1591C140.652 16.8987 140.859 16.5643 140.865 16.1559C140.859 15.8126 140.714 15.5315 140.43 15.3125C140.146 15.0876 139.708 14.916 139.116 14.7976L136.754 14.3271C135.423 14.0607 134.431 13.5991 133.78 12.9421C133.135 12.2852 132.812 11.4477 132.812 10.4297C132.812 9.55374 133.049 8.79912 133.523 8.16584C134.002 7.53255 134.674 7.04427 135.538 6.70099C136.408 6.35772 137.426 6.18608 138.592 6.18608C140.314 6.18608 141.67 6.55007 142.658 7.27805C143.652 8.00604 144.232 8.9974 144.398 10.2521Z" fill="black"/>
</svg>
